nColumns=19
nRows=94
DataType=double
version=3
OpenSimVersion=4.1
endheader
time	ground_force_1_vx	ground_force_1_vy	ground_force_1_vz	ground_force_1_px	ground_force_1_py	ground_force_1_pz	ground_force_1_mx	ground_force_1_my	ground_force_1_mz	ground_force_2_vx	ground_force_2_vy	ground_force_2_vz	ground_force_2_px	ground_force_2_py	ground_force_2_pz	ground_force_2_mx	ground_force_2_my	ground_force_2_mz
0.795	0	0	0	1.44849	0	-0.289713	0	0	0	0	0	0	0.167049	0	-0.357035	0	0	0
0.8	0	0	0	1.45763	0	-0.291444	0	0	0	0	0	0	0.16584	0	-0.356279	0	0	0
0.805	0	0	0	1.46177	0	-0.293701	0	0	0	0	0	0	0.167486	0	-0.35713	0	0	0
0.81	0	0	0	1.46276	0	-0.296101	0	0	0	0	0	0	0.171446	0	-0.358646	0	0	0
0.815	0	0	0	1.46062	0	-0.298154	0	0	0	0	0	0	0.17782	0	-0.360033	0	0	0
0.82	0	0	0	1.45528	0	-0.300088	0	0	0	0	0	0	0.18673	0	-0.361947	0	0	0
0.825	0	0	0	1.44655	0	-0.300888	0	0	0	0	0	0	0.196292	0	-0.364356	0	0	0
0.83	0	0	0	1.43615	0	-0.301891	0	0	0	0	0	0	0.208696	0	-0.366289	0	0	0
0.835	0	0	0	1.42274	0	-0.302119	0	0	0	0	0	0	0.222353	0	-0.369415	0	0	0
0.84	0	0	0	1.40687	0	-0.301847	0	0	0	0	0	0	0.237948	0	-0.372009	0	0	0
0.845	0	0	0	1.38873	0	-0.301844	0	0	0	0	0	0	0.25456	0	-0.374903	0	0	0
0.85	0	0	0	1.36812	0	-0.30227	0	0	0	0	0	0	0.272166	0	-0.378207	0	0	0
0.855	0	0	0	1.34565	0	-0.303868	0	0	0	0	0	0	0.290684	0	-0.380833	0	0	0
0.86	0	0	0	1.32091	0	-0.305415	0	0	0	0	0	0	0.310131	0	-0.38434	0	0	0
0.865	0	0	0	1.29441	0	-0.30783	0	0	0	0	0	0	0.330079	0	-0.388186	0	0	0
0.87	-54.4425	68.0391	-29.4956	1.26597	0	-0.30984	0	-4.77239	0	0	0	0	0.350463	0	-0.391946	0	0	0
0.875	-118.95	234.57	-67.0936	1.16396	0	-0.289905	0	-6.98523	0	0	0	0	0.371199	0	-0.395498	0	0	0
0.88	-195.795	494.99	-116.414	1.1201	0	-0.300622	0	-7.59792	0	0	0	0	0.392348	0	-0.398793	0	0	0
0.885	-267.526	829.355	-171.595	1.08825	0	-0.308557	0	-8.16425	0	0	0	0	0.413795	0	-0.402452	0	0	0
0.89	-307.959	1203.61	-215.969	1.06219	0	-0.315799	0	-7.52273	0	0	0	0	0.435246	0	-0.406433	0	0	0
0.895	-309.667	1598.56	-223.61	1.03705	0	-0.321734	0	1.41359	0	0	0	0	0.456646	0	-0.410779	0	0	0
0.9	-300.749	1993.85	-177.173	1.01185	0	-0.325906	0	17.3942	0	0	0	0	0.478449	0	-0.415186	0	0	0
0.905	-315.88	2355.03	-82.7204	0.9911	0	-0.328511	0	27.3327	0	0	0	0	0.500423	0	-0.41928	0	0	0
0.91	-358.414	2651.44	34.6525	0.978449	0	-0.330012	0	24.4092	0	0	0	0	0.522732	0	-0.424461	0	0	0
0.915	-405.324	2879.31	145.925	0.970704	0	-0.33104	0	16.1528	0	0	0	0	0.545533	0	-0.428996	0	0	0
0.92	-433.889	3049.62	232.624	0.960966	0	-0.332222	0	13.369	0	0	0	0	0.56915	0	-0.433796	0	0	0
0.925	-427.887	3158.23	286.76	0.944351	0	-0.333997	0	20.7545	0	0	0	0	0.59374	0	-0.438322	0	0	0
0.93	-374.693	3195.51	310.347	0.918719	0	-0.336355	0	31.0051	0	0	0	0	0.619895	0	-0.442785	0	0	0
0.935	-271.3	3168.47	313.385	0.883232	0	-0.338965	0	31.5605	0	0	0	0	0.647173	0	-0.446699	0	0	0
0.94	-127.663	3097.08	306.549	0.841366	0	-0.341093	0	21.5403	0	0	0	0	0.676128	0	-0.449471	0	0	0
0.945	27.2547	2997.97	293.813	0.800836	0	-0.342281	0	9.07313	0	0	0	0	0.706318	0	-0.45062	0	0	0
0.95	161.557	2869.69	275.119	0.766438	0	-0.342603	0	-0.539831	0	0	0	0	0.739609	0	-0.451834	0	0	0
0.955	268.286	2705.69	248.147	0.739264	0	-0.342391	0	-2.89604	0	0	0	0	0.772586	0	-0.451703	0	0	0
0.96	358.188	2502.67	212.274	0.717808	0	-0.341704	0	4.5143	0	0	0	0	0.807059	0	-0.450721	0	0	0
0.965	432.987	2251.51	164.58	0.696868	0	-0.341369	0	18.0514	0	0	0	0	0.843006	0	-0.449059	0	0	0
0.97	485.66	1937.98	108.882	0.668636	0	-0.342415	0	31.9198	0	0	0	0	0.879338	0	-0.446492	0	0	0
0.975	513.581	1565.01	59.8033	0.623914	0	-0.345804	0	43.57	0	0	0	0	0.916205	0	-0.443337	0	0	0
0.98	519.314	1161.71	36.8148	0.550113	0	-0.351755	0	47.4467	0	0	0	0	0.953059	0	-0.439917	0	0	0
0.985	502.24	770.513	42.6112	0.42509	0	-0.361361	0	36.709	0	0	0	0	0.989548	0	-0.436435	0	0	0
0.99	456.202	434.267	63.296	0.205857	0	-0.376445	0	7.05738	0	0	0	0	1.02651	0	-0.433781	0	0	0
0.995	379.421	187.335	78.5672	-0.0127118	0	-0.384809	0	-39.3952	0	0	0	0	1.06303	0	-0.429869	0	0	0
1	284.165	38.2335	77.312	0.366873	0	-0.330503	0	-98.9182	0	0	0	0	1.09923	0	-0.427042	0	0	0
1.005	0	0	0	0.34063	0	-0.328931	0	0	0	0	0	0	1.13519	0	-0.42491	0	0	0
1.01	0	0	0	0.314851	0	-0.326151	0	0	0	0	0	0	1.17082	0	-0.422902	0	0	0
1.015	0	0	0	0.290126	0	-0.32233	0	0	0	0	0	0	1.20562	0	-0.420739	0	0	0
1.02	0	0	0	0.268349	0	-0.320006	0	0	0	0	0	0	1.23986	0	-0.417843	0	0	0
1.025	0	0	0	0.242719	0	-0.319128	0	0	0	0	0	0	1.27322	0	-0.414932	0	0	0
1.03	0	0	0	0.220749	0	-0.318069	0	0	0	0	0	0	1.30558	0	-0.412029	0	0	0
1.035	0	0	0	0.20328	0	-0.316585	0	0	0	0	0	0	1.33623	0	-0.409252	0	0	0
1.04	0	0	0	0.191543	0	-0.314513	0	0	0	0	0	0	1.36443	0	-0.406552	0	0	0
1.045	0	0	0	0.17569	0	-0.312516	0	0	0	0	0	0	1.38994	0	-0.404449	0	0	0
1.05	0	0	0	0.161315	0	-0.311778	0	0	0	0	0	0	1.4122	0	-0.402713	0	0	0
1.055	0	0	0	0.149207	0	-0.310363	0	0	0	0	0	0	1.43072	0	-0.401263	0	0	0
1.06	0	0	0	0.139287	0	-0.307342	0	0	0	0	0	0	1.44525	0	-0.400028	0	0	0
1.065	0	0	0	0.130255	0	-0.305968	0	0	0	0	0	0	1.45532	0	-0.398966	0	0	0
1.07	0	0	0	0.125714	0	-0.304109	0	0	0	0	0	0	1.46079	0	-0.398273	0	0	0
1.075	0	0	0	0.12322	0	-0.301521	0	0	0	0	0	0	1.46211	0	-0.398046	0	0	0
1.08	0	0	0	0.124341	0	-0.298256	0	0	0	0	0	0	1.46044	0	-0.39821	0	0	0
1.085	0	0	0	0.128878	0	-0.296363	0	0	0	0	0	0	1.45625	0	-0.399077	0	0	0
1.09	0	0	0	0.134232	0	-0.295556	0	0	0	0	0	0	1.44956	0	-0.400435	0	0	0
1.095	0	0	0	0.146276	0	-0.294553	0	0	0	0	0	0	1.44036	0	-0.402241	0	0	0
1.1	0	0	0	0.158403	0	-0.293159	0	0	0	0	0	0	1.4281	0	-0.401852	0	0	0
1.105	0	0	0	0.173057	0	-0.291405	0	0	0	0	0	0	1.41307	0	-0.399732	0	0	0
1.11	0	0	0	0.189033	0	-0.289585	0	0	0	0	0	0	1.39605	0	-0.395821	0	0	0
1.115	0	0	0	0.206556	0	-0.286662	0	0	0	0	0	0	1.37665	0	-0.390548	0	0	0
1.12	0	0	0	0.224754	0	-0.284215	0	0	0	0	0	0	1.35566	0	-0.384331	0	0	0
1.125	0	0	0	0.244006	0	-0.281166	0	0	0	0	0	0	1.33272	0	-0.377487	0	0	0
1.13	0	0	0	0.264103	0	-0.277855	0	0	0	0	0	0	1.30787	0	-0.370159	0	0	0
1.135	0	0	0	0.285043	0	-0.274259	0	0	0	-56.8288	73.0897	-1.98315	1.28166	0	-0.362442	0	-4.47003	0
1.14	0	0	0	0.306793	0	-0.270356	0	0	0	-130.827	230.21	14.9779	1.09581	0	-0.416501	0	-5.60382	0
1.145	0	0	0	0.328557	0	-0.267297	0	0	0	-225.683	470.446	49.7325	1.10197	0	-0.396629	0	-3.45821	0
1.15	0	0	0	0.351377	0	-0.263285	0	0	0	-317.095	770.959	106.809	1.09948	0	-0.382246	0	5.27409	0
1.155	0	0	0	0.37422	0	-0.259441	0	0	0	-371.341	1100.76	170.57	1.09261	0	-0.370061	0	16.3324	0
1.16	0	0	0	0.397188	0	-0.255691	0	0	0	-381.171	1459.05	211.641	1.07523	0	-0.36006	0	16.356	0
1.165	0	0	0	0.420204	0	-0.251787	0	0	0	-376.59	1848.46	209.88	1.04473	0	-0.351558	0	2.01314	0
1.17	0	0	0	0.443116	0	-0.248039	0	0	0	-374.096	2239.84	155.532	1.01401	0	-0.345148	0	-14.1848	0
1.175	0	0	0	0.466753	0	-0.243032	0	0	0	-373.193	2585.03	59.6512	0.991274	0	-0.340407	0	-22.075	0
1.18	0	0	0	0.489503	0	-0.239876	0	0	0	-376.231	2850.24	-53.5308	0.973218	0	-0.337107	0	-22.6303	0
1.185	0	0	0	0.512243	0	-0.237246	0	0	0	-373.318	3019.77	-152.242	0.955638	0	-0.334527	0	-20.4302	0
1.19	0	0	0	0.534964	0	-0.233636	0	0	0	-349.448	3099.36	-218.495	0.934454	0	-0.332708	0	-19.9816	0
1.195	0	0	0	0.558616	0	-0.230152	0	0	0	-292.411	3110.44	-246.792	0.905619	0	-0.331543	0	-20.9806	0
1.2	0	0	0	0.582552	0	-0.227988	0	0	0	-191.299	3075.71	-246.031	0.869208	0	-0.331151	0	-18.1837	0
1.205	0	0	0	0.608479	0	-0.225897	0	0	0	-56.8352	3014.11	-228.872	0.829349	0	-0.331019	0	-9.56091	0
1.21	0	0	0	0.636477	0	-0.221407	0	0	0	80.1503	2932.39	-208.12	0.791121	0	-0.330831	0	-1.00154	0
1.215	0	0	0	0.666237	0	-0.218588	0	0	0	196.824	2821	-189.71	0.757519	0	-0.330412	0	2.63789	0
1.22	0	0	0	0.698395	0	-0.214035	0	0	0	291.621	2672.9	-168.98	0.72948	0	-0.329647	0	1.61835	0
1.225	0	0	0	0.731899	0	-0.213447	0	0	0	369.234	2488.91	-136.903	0.706181	0	-0.328259	0	-5.13959	0
1.23	0	0	0	0.767122	0	-0.210731	0	0	0	427.934	2268	-94.3681	0.68557	0	-0.326256	0	-20.1503	0
1.235	0	0	0	0.803641	0	-0.208981	0	0	0	464.961	2003.87	-52.9236	0.663956	0	-0.323974	0	-41.9215	0
1.24	0	0	0	0.841215	0	-0.206966	0	0	0	482.054	1693.14	-27.1833	0.634729	0	-0.322358	0	-60.9622	0
1.245	0	0	0	0.879709	0	-0.204953	0	0	0	486.704	1342.29	-26.4775	0.587442	0	-0.323062	0	-61.9717	0
1.25	0	0	0	0.918242	0	-0.203056	0	0	0	481.854	972.195	-50.77	0.505937	0	-0.328503	0	-33.5102	0
1.255	0	0	0	0.957714	0	-0.201064	0	0	0	460.48	618.719	-89.6004	0.363801	0	-0.341965	0	25.0337	0
1.26	0	0	0	0.996376	0	-0.200131	0	0	0	415.217	324.54	-124.944	0.116795	0	-0.36843	0	107.73	0
